HIERARCHY
ROOT Hips
{
  OFFSET -331.093 83.8371 -317.828
  CHANNELS 6 Xposition Yposition Zposition Zrotation Xrotation Yrotation
  JOINT LeftUpLeg
  {
    OFFSET 8.64259 1.95398 -2.38835
    CHANNELS 3 Zrotation Xrotation Yrotation
    JOINT LeftLeg
    {
      OFFSET 43.7702 0 0
      CHANNELS 3 Zrotation Xrotation Yrotation
      JOINT LeftFoot
      {
        OFFSET 40.6238 0 0
        CHANNELS 3 Zrotation Xrotation Yrotation
        JOINT LeftToeBase
        {
          OFFSET 12.7242 0 0
          CHANNELS 3 Zrotation Xrotation Yrotation
          End Site
          {
            OFFSET 0 0 0
          }
        }
      }
    }
  }
  JOINT RightUpLeg
  {
    OFFSET -8.2249 1.95398 -2.59336
    CHANNELS 3 Zrotation Xrotation Yrotation
    JOINT RightLeg
    {
      OFFSET 43.5653 0 0
      CHANNELS 3 Zrotation Xrotation Yrotation
      JOINT RightFoot
      {
        OFFSET 40.6238 0 0
        CHANNELS 3 Zrotation Xrotation Yrotation
        JOINT RightToeBase
        {
          OFFSET 12.7242 0 0
          CHANNELS 3 Zrotation Xrotation Yrotation
          End Site
          {
            OFFSET 0 0 0
          }
        }
      }
    }
  }
  JOINT Spine
  {
    OFFSET 0.165834 0.87714 6.61349
    CHANNELS 3 Zrotation Xrotation Yrotation
    JOINT Spine1
    {
      OFFSET 7.38963 1.71661e-005 0
      CHANNELS 3 Zrotation Xrotation Yrotation
      JOINT Spine2
      {
        OFFSET 11.9445 1.14441e-005 0
        CHANNELS 3 Zrotation Xrotation Yrotation
        JOINT Spine3
        {
          OFFSET 14.7254 4.19617e-005 0
          CHANNELS 3 Zrotation Xrotation Yrotation
          JOINT Spine4
          {
            OFFSET 10.9679 0 0
            CHANNELS 3 Zrotation Xrotation Yrotation
            JOINT RightShoulder
            {
              OFFSET 2.46616 -1.6653 3.69651
              CHANNELS 3 Zrotation Xrotation Yrotation
              JOINT RightArm
              {
                OFFSET 13.0012 0 0
                CHANNELS 3 Zrotation Xrotation Yrotation
                JOINT RightForeArm
                {
                  OFFSET 28.7848 1.62311e-005 0
                  CHANNELS 3 Zrotation Xrotation Yrotation
                  JOINT RightHand
                  {
                    OFFSET 26.5688 1.62095e-005 0
                    CHANNELS 3 Zrotation Xrotation Yrotation
                    End Site
                    {
                      OFFSET 0 0 0
                    }
                  }
                }
              }
            }
            JOINT LeftShoulder
            {
              OFFSET 2.38034 -1.29275 -3.7523
              CHANNELS 3 Zrotation Xrotation Yrotation
              JOINT LeftArm
              {
                OFFSET 16.3182 6.07031e-005 0
                CHANNELS 3 Zrotation Xrotation Yrotation
                JOINT LeftForeArm
                {
                  OFFSET 27.0901 0 0
                  CHANNELS 3 Zrotation Xrotation Yrotation
                  JOINT LeftHand
                  {
                    OFFSET 24.5451 1.51738e-005 0
                    CHANNELS 3 Zrotation Xrotation Yrotation
                    End Site
                    {
                      OFFSET 0 0 0
                    }
                  }
                }
              }
            }
            JOINT Neck
            {
              OFFSET 5.0226 -0.0266342 0
              CHANNELS 3 Zrotation Xrotation Yrotation
              JOINT Head
              {
                OFFSET 6.69364 2.86102e-005 0
                CHANNELS 3 Zrotation Xrotation Yrotation
                End Site
                {
                  OFFSET 0 0 0
                }
              }
            }
          }
        }
      }
    }
  }
}
MOTION
Frames:	9
Frame Time:	0.0416667
-331.71 90.3127 -323.873 37.9335 4.68137 69.6988 -177.67 39.249 87.2866 -3.21903 -51.0062 -4.0124 -33.1659 -21.6588 -71.3102 -56.0939 -44.9191 -20.3986 -134.165 59.4371 62.5293 106.599 25.9022 -105.921 14.1064 3.11095 -9.28457 19.1048 -5.18003 -108.097 14.8592 5.10305 -82.023 15.5647 33.3092 10.9667 4.35013 33.7535 9.3209 -20.754 28.4236 21.1056 -0.741348 28.4236 21.1056 92.5173 17.0209 -158.245 138.565 1.73955 -18.3865 163.797 -25.751 -118.612 -15.4493 1.509 -46.1043 -91.9081 16.9168 13.3403 -19.2974 61.4755 -83.2603 131.278 37.5124 -168.026 -34.2127 8.5752 -34.1183 39.1498 58.4293 -102.487 -99.983 21.6464 80.9355 
-331.937 89.9161 -324.055 37.9646 4.72103 69.6564 -178.31 39.4081 87.2813 -2.22751 -51.342 -2.74238 -33.9526 -21.0353 -71.4864 -56.7458 -44.3966 -21.7186 -134.999 58.6287 63.3365 112.165 23.9558 -106.833 14.3613 1.22926 -11.9469 21.1703 -7.81115 -105.487 14.7658 5.06187 -82.0269 15.6579 33.1235 10.9498 4.43707 33.5674 9.31551 -20.6293 28.2535 21.0198 -0.616659 28.2534 21.0197 94.216 19.1121 -158.46 138.849 -0.521143 -18.1459 166.196 -24.5097 -119.068 -12.37 0.572475 -46.3105 -93.4343 15.0607 13.9589 -20.016 62.2343 -80.7211 129.872 40.9661 -167.11 -36.1835 9.56352 -35.4309 40.0518 60.357 -103.25 -97.8453 22.8742 84.2636 
-332.761 88.8763 -324.68 38.1513 4.79653 69.5359 -178.498 39.697 87.23 -1.93768 -50.1488 -2.51392 -34.5837 -19.9876 -72.2207 -55.522 -43.2655 -22.4336 -136.696 56.7068 64.5802 124.951 19.9083 -108.714 17.0461 -3.23411 -17.9074 26.7925 -13.5763 -98.2451 14.6898 4.98308 -82.0204 15.8346 32.9779 10.9159 4.60904 33.4206 9.29052 -20.4306 28.1258 20.9341 -0.417979 28.1258 20.9341 96.537 21.809 -158.161 137.992 -3.59365 -16.6846 175.363 -21.2058 -118.418 -5.3353 -1.58789 -45.0196 -93.182 15.2993 14.0911 -22.5275 62.168 -78.3193 129.488 44.69 -167.001 -36.027 9.57649 -35.6107 42.2242 60.1741 -104.589 -98.1793 22.7047 85.3498 
-334.195 87.388 -325.648 38.6437 4.84068 69.3424 -178.982 39.7908 87.0638 -0.532519 -48.2103 -1.90262 -34.8736 -17.9539 -73.1376 -53.7715 -41.1568 -24.2759 -138.11 54.6969 65.3803 137.688 15.7956 -110.389 24.0645 -7.85722 -23.2014 34.371 -18.7342 -87.6036 14.5823 4.79988 -82.0984 16.2848 32.7298 10.6203 5.0533 33.1599 9.00921 -19.9719 27.975 20.5748 0.0407849 27.975 20.5748 99.7284 25.4462 -157.586 135.574 -9.26895 -14.0072 -169.638 -18.4696 -116.698 3.7134 -4.35241 -44.0259 -93.4275 15.0894 13.8904 -29.4221 62.0244 -71.5003 129.48 51.1237 -167.593 -35.8371 9.22758 -34.7384 44.4656 60.1346 -106.453 -98.8108 21.9379 86.5879 
-336.141 85.6822 -326.858 39.602 4.77438 69.0746 -179.655 46.858 86.3958 -12.6876 -37.8524 -0.169157 -29.2389 -18.4726 -83.1912 -49.6582 -37.1284 -27.5748 -138.85 53.2652 65.4641 145.324 12.852 -111.76 33.7149 -10.745 -25.9844 41.0922 -20.8696 -76.291 14.5248 4.5757 -82.182 16.8333 32.5763 10.2622 5.59957 32.991 8.65929 -19.4385 27.9312 20.195 0.574132 27.9312 20.195 103.34 29.5232 -155.85 130.711 -17.9496 -10.9225 -152.394 -16.0022 -113.039 11.7375 -6.67538 -42.5836 -92.0318 16.8743 13.01 -33.2297 61.6434 -69.1503 124.417 64.516 -162.553 -34.0577 7.29074 -29.9792 48.2228 58.2159 -109.086 -100.263 22.4391 87.4664 
-338.16 83.7971 -328.122 41.1986 4.49214 68.7336 -179.481 56.2385 85.0195 -31.8653 -19.1844 0.0547838 -6.15053 -24.3816 -88.5696 -29.4337 -28.0473 -28.1419 -138.977 52.8894 65.286 142.135 12.1166 -112.264 44.5197 -7.89669 -29.3819 44.8628 -20.5955 -67.8072 14.3467 4.29356 -82.4388 17.5708 32.0966 9.53713 6.3266 32.4804 7.96143 -18.6998 27.6843 19.3609 1.31291 27.6843 19.3609 107.905 34.5968 -156.169 123.603 -29.0642 -7.23188 -133.507 -9.46067 -106.231 18.6337 -8.52559 -40.5527 -92.4783 16.4587 12.7887 -41.2232 60.9664 -61.2755 110.35 79.9064 -148.635 -26.171 3.75116 -22.2386 59.8969 54.8793 -118.092 -107.625 21.2667 90.8242 
-339.894 82.3878 -329.491 43.6268 3.8435 68.3421 -175.431 60.0311 76.0587 -48.6018 12.0184 -1.69418 79.9433 -18.4106 -23.0237 29.3746 -2.17474 -15.6487 -137.296 54.6697 63.112 -158.034 -21.8473 -108.422 55.7955 -73.4379 42.0675 46.4162 -19.986 -63.3284 13.8582 3.89071 -82.8368 18.5935 30.9275 8.55314 7.31876 31.2699 7.04533 -17.5824 26.8625 18.032 2.4303 26.8625 18.032 112.456 38.2923 -161.886 114.958 -38.8047 -1.29369 -122.849 -0.612903 -90.5963 23.1838 -9.58826 -38.7439 -96.9026 11.1592 13.7948 -48.8935 60.0351 -47.6593 -21.5006 80.2201 -17.2788 -10.8316 0.645442 -14.2811 -52.0402 15.9958 -21.8967 -9.61541 3.41114 0.817853 
-341.322 81.2726 -330.724 47.1076 2.61202 67.9905 -177.236 51.9301 73.0108 -42.5318 50.3643 -3.78579 66.9143 30.458 41.0143 42.4664 13.0565 6.75257 -127.729 60.6149 50.169 -80.7639 -25.712 -53.884 133.939 -19.5096 128.487 47.6271 -20.4142 -62.3557 12.8072 3.68462 -83.6452 19.0946 28.4569 7.31133 7.75656 28.748 5.94407 -16.8155 24.8852 15.9964 3.19712 24.8852 15.9964 137.066 58.9175 -163.437 79.108 -66.271 -40.7121 -114.696 10.6244 -85.5679 25.5994 -9.60953 -35.9088 -107.272 -2.29704 19.6198 -53.6779 52.3962 -28.0168 -40.4764 61.2591 1.16416 4.03173 -0.326294 -8.8352 -60.8225 -64.6931 -15.0154 -95.4578 -19.131 -91.5663 
-342.126 81.4722 -331.671 51.8743 0.518208 67.9251 -179.685 45.8299 74.131 -38.4755 70.1827 -4.35656 50.6053 27.3279 61.8285 35.6563 9.96047 13.8955 -119.54 64.3275 29.6215 111.378 23.8878 -158.47 39.9327 15.5717 -9.12767 49.3764 -22.6991 -65.0184 16.0802 0.811606 -81.5929 25.6804 35.7211 7.13721 14.5811 35.9949 5.32444 -11.5702 31.7714 18.6364 8.44241 31.7714 18.6363 94.4606 14.1428 -136.277 85.2306 -49.381 -5.2024 -111.06 21.0878 -80.1699 29.6922 -9.55875 -32.2803 31.746 51.0219 -63.4534 -2.64992 28.8492 -155.656 -8.51128 31.6494 -31.4047 10.0925 -0.119044 -4.63105 70.0427 2.64475 -112.83 -121.779 41.2978 88.7386 
